<?xml version="1.0" encoding="UTF-8" standalone="no"?>
<svg
   xmlns:dc="http://purl.org/dc/elements/1.1/"
   xmlns:cc="http://creativecommons.org/ns#"
   xmlns:rdf="http://www.w3.org/1999/02/22-rdf-syntax-ns#"
   xmlns:svg="http://www.w3.org/2000/svg"
   xmlns="http://www.w3.org/2000/svg"
   xmlns:xlink="http://www.w3.org/1999/xlink"
   xmlns:sodipodi="http://sodipodi.sourceforge.net/DTD/sodipodi-0.dtd"
   xmlns:inkscape="http://www.inkscape.org/namespaces/inkscape"
   inkscape:version="1.0 (4035a4fb49, 2020-05-01)"
   inkscape:export-ydpi="95"
   inkscape:export-xdpi="95"
   inkscape:export-filename="D:\AlgoCerca\fondo_tamañonormal 9.png"
   version="1.1"
   x="0px"
   y="0px"
   width="516.084px"
   height="932.35px"
   viewBox="0 0 516.084 932.35"
   enable-background="new 0 0 516.084 932.35"
   xml:space="preserve"
   id="svg71"
   sodipodi:docname="fondo_tamañonormal.svg"><metadata
   id="metadata77"><rdf:RDF><cc:Work
       rdf:about=""><dc:format>image/svg+xml</dc:format><dc:type
         rdf:resource="http://purl.org/dc/dcmitype/StillImage" /></cc:Work></rdf:RDF></metadata><defs
   id="defs75"><linearGradient
     id="linearGradient997"
     inkscape:collect="always"><stop
       id="stop993"
       offset="0"
       style="stop-color:#2962ff;stop-opacity:1;" /><stop
       id="stop995"
       offset="1"
       style="stop-color:#2962ff;stop-opacity:0;" /></linearGradient><linearGradient
     id="linearGradient989"
     inkscape:collect="always"><stop
       id="stop985"
       offset="0"
       style="stop-color:#2962ff;stop-opacity:1" /><stop
       style="stop-color:#3a62ff;stop-opacity:1"
       offset="0.22913194"
       id="stop1001" /><stop
       id="stop987"
       offset="1"
       style="stop-color:#7c4dff;stop-opacity:1" /></linearGradient><linearGradient
     id="linearGradient971"
     inkscape:collect="always"><stop
       id="stop967"
       offset="0"
       style="stop-color:#000000;stop-opacity:1;" /><stop
       id="stop969"
       offset="1"
       style="stop-color:#000000;stop-opacity:0;" /></linearGradient><radialGradient
     gradientUnits="userSpaceOnUse"
     gradientTransform="matrix(1,0,0,1.1006712,0,-31.623941)"
     r="285.39951"
     fy="314.13101"
     fx="258.85052"
     cy="314.13101"
     cx="258.85052"
     id="radialGradient957"
     xlink:href="#radialGradient6661"
     inkscape:collect="always" /><linearGradient
     gradientUnits="userSpaceOnUse"
     y2="618.9845"
     x2="544.25"
     y1="618.9845"
     x1="-30.42"
     id="linearGradient973"
     xlink:href="#linearGradient971"
     inkscape:collect="always" /><linearGradient
     gradientUnits="userSpaceOnUse"
     y2="787.08478"
     x2="331.09192"
     y1="618.9845"
     x1="-30.42"
     id="linearGradient991"
     xlink:href="#linearGradient989"
     inkscape:collect="always" /><linearGradient
     gradientUnits="userSpaceOnUse"
     y2="357.42496"
     x2="255.93079"
     y1="250.37476"
     x1="245.53082"
     id="linearGradient999"
     xlink:href="#linearGradient997"
     inkscape:collect="always" /></defs><sodipodi:namedview
   inkscape:document-rotation="0"
   inkscape:current-layer="svg71"
   inkscape:window-maximized="1"
   inkscape:window-y="-8"
   inkscape:window-x="-8"
   inkscape:cy="424.58317"
   inkscape:cx="138.46551"
   inkscape:zoom="0.57703654"
   showgrid="false"
   id="namedview73"
   inkscape:window-height="705"
   inkscape:window-width="1366"
   inkscape:pageshadow="2"
   inkscape:pageopacity="0"
   guidetolerance="10"
   gridtolerance="10"
   objecttolerance="10"
   borderopacity="1"
   bordercolor="#666666"
   pagecolor="#ffffff" />
<g
   id="Fondo_cielo">
	<radialGradient
   gradientUnits="userSpaceOnUse"
   r="300.1092"
   cy="314.1309"
   cx="258.8506"
   id="SVGID_1_">
		<stop
   id="stop2"
   style="stop-color:#F9A66E"
   offset="0" />
		<stop
   id="stop4"
   style="stop-color:#E16268"
   offset="1" />
	</radialGradient>
	<rect
   style="fill-opacity:1;fill:url(#radialGradient957)"
   y="0"
   id="rect7"
   height="628.26202"
   width="570.79901"
   fill="url(#radialGradient6661)"
   x="-26.549" />
<radialGradient
   gradientUnits="userSpaceOnUse"
   r="300.1092"
   cy="314.1309"
   cx="258.8506"
   id="radialGradient6661">
		<stop
   id="stop909"
   style="stop-color:#759bff;stop-opacity:1"
   offset="0" />
		<stop
   id="stop911"
   style="stop-color:#2783ff;stop-opacity:1"
   offset="1" />
	</radialGradient>
	</g>
<g
   id="Cordillera">
	<linearGradient
   y2="610.3555"
   x2="258.8501"
   y1="223.127"
   x1="258.8501"
   gradientUnits="userSpaceOnUse"
   id="SVGID_2_">
		<stop
   id="stop10"
   style="stop-color:#33588E"
   offset="0" />
		<stop
   id="stop12"
   style="stop-color:#3E6795"
   offset="0.065" />
		<stop
   id="stop14"
   style="stop-color:#4A789C"
   offset="0.1707" />
		<stop
   id="stop16"
   style="stop-color:#5383A1"
   offset="0.3024" />
		<stop
   id="stop18"
   style="stop-color:#588AA4"
   offset="0.4871" />
		<stop
   id="stop20"
   style="stop-color:#598CA5"
   offset="1" />
	</linearGradient>
	<path
   style="fill:url(#linearGradient999);fill-opacity:1"
   id="path23"
   d="M544.25,251.188c-31.33-2.085-45.047-5.524-61.786-8.973c-4.534-0.935-25.792-0.946-28.685-5.225   c-1.546-2.287-13.075-7.229-14.497-9.627c-5.033-8.489-10.672-1.991-19.142,0.378c-12.605,3.529-25.556,12.479-38.434,10.889   c-4.32-0.535-9.041-1.473-12.712,1.3c-1.86,1.402-17.22,3.625-19.074,5.046c-2.717,2.076-6.14,2.182-9.367,2.217   c-17.196,0.197-20.626,10.367-37.252,5.118c-7.444-2.349-14.71-5.78-22.371-6.661c-20.056-2.315-39.14,15.959-59.206,13.81   c-4.865-0.521-9.661-3.971-14.544-4.02c-3.384-0.033-6.746,2.606-10.121,2.808c-6.011,0.358-32.024-0.664-37.979-1.686   c-33.73-5.782-47.899-11.717-79.217-27.776c-4.459-2.287-9.015-4.817-13.864-4.856c-4.008-0.026-7.877,1.665-11.543,3.602   C36.355,237.085,21.009,252.975,3,262.768c-4.006,2.179-8.191,4.067-12.571,4.599c-5.64,0.691-11.326-0.891-16.978-0.775v343.765   H544.25V251.188z"
   fill="url(#SVGID_2_)" />
	<linearGradient
   xlink:href="#radialGradient6661"
   y2="599.53809"
   x2="258.8501"
   y1="260.31741"
   x1="258.8501"
   gradientUnits="userSpaceOnUse"
   id="SVGID_3_">
		<stop
   id="stop25"
   style="stop-color:#33588E"
   offset="0" />
		<stop
   id="stop27"
   style="stop-color:#396192"
   offset="0.053" />
		<stop
   id="stop29"
   style="stop-color:#47749A"
   offset="0.2035" />
		<stop
   id="stop31"
   style="stop-color:#5182A0"
   offset="0.3782" />
		<stop
   id="stop33"
   style="stop-color:#578AA4"
   offset="0.5971" />
		<stop
   id="stop35"
   style="stop-color:#598CA5"
   offset="1" />
	</linearGradient>
	<path
   style="fill-opacity:1;fill:#223e89"
   id="path38"
   d="M544.25,286.935c-31.626-0.437-104.447,1.577-111.089,0.052c-3.378-0.771-6.479-2.425-9.534-4.062   c-11.961-6.413-23.925-12.826-35.888-19.238c-3.075-1.649-6.307-3.338-9.794-3.369c-2.658-0.024-5.217,0.924-7.707,1.855   c-11.996,4.506-23.994,9.01-35.993,13.514c-7.442,2.796-15.084,5.711-20.955,11.073c-5.809,5.311-11.409,13.492-19.136,12.008   c-1.635-0.315-5.771-1.165-4.119-0.963c-9.641-3.45-14.743,6.231-24.627,8.906c-5.294,1.436-19.949,7.713-35.951,1.712   c-8.27-3.102-28.973-26.002-59.972-17.959c-20.821,5.398-130.796,42.085-196.035,67.636v241.438H544.25V286.935z"
   fill="url(#SVGID_3_)" />
	<linearGradient
   y2="582.7139"
   x2="258.8501"
   y1="269.5381"
   x1="258.8501"
   gradientUnits="userSpaceOnUse"
   id="SVGID_4_">
		<stop
   id="stop40"
   style="stop-color:#598CA5"
   offset="0" />
		<stop
   id="stop42"
   style="stop-color:#5384A1"
   offset="0.2666" />
		<stop
   id="stop44"
   style="stop-color:#436D97"
   offset="0.6853" />
		<stop
   id="stop46"
   style="stop-color:#33588E"
   offset="1" />
	</linearGradient>
	<path
   style="fill:#204dc8;fill-opacity:1"
   id="path49"
   d="M544.25,329.808c-9.854-6.107-19.752-11.157-29.565-10.834c-8.646,0.284-17.403,0.785-25.618,3.434   c-11.295,3.638-21.99,11.356-33.778,9.844c-16.734-2.145-26.583-21.769-43.243-24.423c-5.708-0.91-11.515,0.339-17.168,1.524   c-55.117,11.576-111.356,56.031-167.71,57.205c-21.12,0.438-42.424,0.124-63.088-4.173c-26.818-5.576-51.688-17.657-76.231-29.628   c-22.591-11.017-45.182-22.034-67.775-33.052c-6.385-3.112-12.859-6.288-18.131-10.993c-4.456-3.979-7.943-8.962-12.702-12.592   c-4.674-3.565-10.056-5.518-15.788-6.582v313.176H544.25V329.808z"
   fill="url(#SVGID_4_)" />
</g>
<g
   id="Barrio">
	<g
   style="fill-opacity:1;fill:url(#linearGradient973)"
   id="g65">
		<linearGradient
   style="fill-opacity:1;fill:url(#linearGradient973)"
   y2="931.8301"
   x2="256.9145"
   y1="306.1416"
   x1="256.9146"
   gradientUnits="userSpaceOnUse"
   id="SVGID_5_">
			<stop
   id="stop52"
   style="stop-color:#733558;fill-opacity:1;fill:url(#linearGradient973)"
   offset="0" />
			<stop
   id="stop54"
   style="stop-color:#8B485C;fill-opacity:1;fill:url(#linearGradient973)"
   offset="0.1448" />
			<stop
   id="stop56"
   style="stop-color:#C87A66;fill-opacity:1;fill:url(#linearGradient973)"
   offset="0.5481" />
			<stop
   id="stop58"
   style="stop-color:#EE996C;fill-opacity:1;fill:url(#linearGradient973)"
   offset="0.8445" />
			<stop
   id="stop60"
   style="stop-color:#FCA56E;fill-opacity:1;fill:url(#linearGradient973)"
   offset="1" />
		</linearGradient>
		<path
   style="fill:url(#linearGradient991);fill-opacity:1"
   id="path63"
   d="M-26.549,931.83H544.25V392.563h-6.878l1.818-14.388l0.285-3.363l-0.237,3.34l5.012,0.499v-5.678    l-29.296-20.455l-22.08-11.168l-11.24,9.011l-2.231,1.774l-9.527-2.036l0.725,7.282l0.349,1.34l-19.186,14.307l0.498,2.965    l1.74,0.011v27.867l-7.739,0.146l5.34-59.545h6.216v-2.915v-0.32l-1.02-3.179l0.089-0.098l-0.198-0.242l-12.658-17.946h-5.949    h-8.142h-11.602h-2.036h-0.634h-2.215h-8.064h-13.19h-5.296l-15.83,21.868l0.08,0.001l-0.08,0.201l1.116,2.63h5.953l0.101,1.961    l0.031,0.57l0.13,2.482v0.008l0.031,0.648l0.166,3.185l0.018,0.265l0.89,17.086l-28.509-11.899l-27.567,11.509l0.268-23.416h0.036    l0.13-2.398h6.218v-2.915v-0.32l-1.017-3.179l0.085-0.098l-0.195-0.242l-5.754-17.946h-14.089l-3.616-1.51l-6.094-5.173    l-8.799,6.683h-16.486h-2.216h-10.964l-5.786-4.051l-5.128,4.051h-18.483l-8.925,21.868l0.081,0.001l-0.081,0.201l1.115,2.63    h5.955l0.102,1.961l0.03,0.57l0.128,2.482v0.008l0.036,0.648l0.163,3.185l0.016,0.265l2.784,44.264l-20.431,0.323l0.674-5.704    l0.183-2.176l0.068-0.8l0.44-5.235l0.035-0.44l0.211-2.506l0.046-0.538l0.175-2.085v-0.004l0.004,0.004l0.04-0.519l0.284-3.363    l-0.237,3.34l5.453,0.542l2.726-3.51l-32.462-22.666l-13.667,0.078c0.658-0.952,1.775-2.652,2.256-3.891    c0,0,0.732-1.113-0.12-2.02c0,0-0.711-0.966-0.542-2.094c0,0-0.001-0.001-0.003-0.003c0.053-0.475,0.185-2.098-0.343-3.412    c0.263-0.478,3.143-5.952-0.823-9.652c0,0-3.482-3.072-7.033-0.32c0,0-1.353,1.307-0.009,2.731c0,0,0.648,0.472,0.621-0.576    c0,0-0.003-1.839,1.573-2.046c0,0,3.853-0.249,4.625,2.65c0,0,1.632,4.223-0.995,5.448c0,0-5.733-1.359-8.023-0.855    c0,0-1.79-0.467-3.218-1.525c0.565-0.986,0.309-1.792,0.309-1.792c-0.028-0.245-0.07-0.507-0.111-0.752    c0.074-0.33,0.065-0.84,0.065-0.84c0.295-0.825,0.112-2.569,0.112-2.569c-0.056-0.25-0.461-0.086-0.722,0.152    c-0.349,0.351-0.551,0.788-0.551,0.788l-0.501,0.721c-0.328-0.01-0.526,0-0.828,0.014c-0.088,0.005-0.182,0.008-0.279,0.012    c0,0,0,0-0.001,0c-0.163-0.022-0.561,0.006-0.716,0.005c-0.1-0.002-0.201-0.005-0.292-0.005v-0.001    c-0.062,0-0.131,0.001-0.201,0.001c-0.003,0-0.006,0-0.01,0.002c-0.253,0.006-0.525,0.021-0.764,0.061    c0,0.007,0.003,0.015,0.004,0.021c-0.001-0.001-0.001-0.001-0.003-0.001l-0.599-0.639c0,0-0.265-0.403-0.663-0.701    c-0.29-0.194-0.715-0.298-0.733-0.044c0,0,0.073,1.75,0.483,2.526c0,0,0.082,0.633,0.234,0.929    c0.007,0.012,0.013,0.022,0.019,0.032c-0.015,0.152-0.029,0.308-0.04,0.457c0,0-0.438,1.61,1.616,2.966    c0,0,0.059,0.028,0.149,0.072c-0.163,0.88-0.405,3.43,1.776,5.149c0,0,0.672,0.863,2.009,1.434    c0.084,0.581,0.286,1.257,0.719,1.91l0.596,1.156c0,0,0.677,2.868,0.816,3.446l-0.251,0.034c-0.189-0.01-0.911-0.011-1.116,0.562    c0,0-0.168,0.262-0.096,0.523l-11.271,0.065l-7.463,5.993l-19.185,14.307l0.497,2.965l5.696,0.048h0.065l0.133,1.694l-0.195,0.003    l-4.071,2.098l-11.879,6.12l4.032-35.676l4.346,8.081l5.702-0.045l-36.914-52.175l-37.053,52.211h5.613l4.4-8.072l4.778,42.283    H55.191l1.82-14.388l0.284-3.363l-0.239,3.34l5.455,0.542l2.725-3.51l-32.462-32.672l-35.65,3.095l-0.098,0.009l-4.646,10.41    l-0.769,0.572l-3.193,0.774v0.009l0.349,1.34l-19.187,14.307l0.499,2.965l8.296,0.048h-2.532l0.133,1.694h2.549l2.615,25.96    l-7.688,0.146V931.83z M457,376.021l3.556,0.021h-2.533l0.135,1.694h2.548l2.615,25.96l-6.321,0.12V376.021z M370.877,376.669    l0.367-2.932l8.459,0.678l0.946,18.148h-1.638h-3.453h-6.662L370.877,376.669z M168.696,352.628l0.438-4.353    c0,0,0.482-1.102,0.839-2.154c0.992,0.101,2.126,0.049,3.161-0.378c0.426,0.639,0.981,1.183,1.452,1.79    c0.495,0.635,1.413,1.418,1.397,2.222c-0.012,0.569,0.055,1.853-0.529,1.98c-0.55,0.045-1.03,0.413-1.007,0.873l-5.751,0.033    V352.628z M167.2,347.464l0.367,1.018c0,0-0.375,2.236,0.044,3.293l0.071,0.232c-0.087-0.017-0.287-0.043-0.5-0.015l-0.044-4.289    C167.138,347.703,167.162,347.616,167.2,347.464z M134.321,390.059l0.197,15.486h-10.547l-2.677-15.579l-0.021-0.325    L134.321,390.059z M116.808,389.496l2.235,0.075l0.036,0.325l1.972,10.23h-5.189L116.808,389.496z"
   fill="url(#SVGID_5_)" />
	</g>
</g>
<g
   id="Botones">
</g>
<g
   id="Textos_interface">
</g>
<g
   id="Marco">
</g>
</svg>
